<svg width="136" height="38" viewBox="0 0 136 38" fill="none" xmlns="http://www.w3.org/2000/svg">
<g clip-path="url(#clip0_591_3272)">
<path d="M18.2155 23.3079C19.0561 23.3079 19.7345 23.9879 19.7345 24.8304V31.4241C19.7345 32.2667 19.0561 32.9467 18.2155 32.9467H1.51895C0.678385 32.9467 0 32.2667 0 31.4241V14.6861C0 13.8436 0.678385 13.1636 1.51895 13.1636H8.09711C8.93768 13.1636 9.61606 13.8436 9.61606 14.6861V22.2948C9.61606 22.8519 10.071 23.3099 10.6287 23.3099H18.2195L18.2155 23.3079Z" fill="#51A9E3"></path>
<path d="M11.0443 13.2547H18.6351C19.1909 13.2547 19.6478 13.7107 19.6478 14.2698V21.8785C19.6478 22.721 20.3262 23.401 21.1667 23.401H27.7449C28.5854 23.401 29.2638 22.721 29.2638 21.8785V5.1385C29.2638 4.29595 28.5854 3.61597 27.7449 3.61597H11.0443C10.2038 3.61597 9.52539 4.29595 9.52539 5.1385V11.7322C9.52539 12.5748 10.2038 13.2547 11.0443 13.2547Z" fill="#51A9E3"></path>
<path d="M65.043 0.214107V2.61884C65.043 2.67435 65.0647 2.72788 65.1023 2.76951C65.1399 2.80916 65.1913 2.83097 65.2467 2.83097H69.137C69.1924 2.83097 69.2418 2.80916 69.2814 2.76951C69.319 2.72986 69.3407 2.67634 69.3407 2.61884V0.214107C69.3407 0.158598 69.317 0.105071 69.2814 0.0634391C69.2438 0.0237896 69.1924 0 69.137 0H65.2467C65.1339 0 65.043 0.0971411 65.043 0.214107Z" fill="#121C2D"></path>
<path d="M41.2447 6.99603H42.2574V10.6497C42.2574 13.2329 43.6379 14.4442 46.207 14.4442C47.1999 14.4442 48.173 14.236 48.8612 13.9049C48.8988 13.8851 48.9324 13.8554 48.9542 13.8177C48.9759 13.782 48.9878 13.7404 48.9878 13.6968V10.7508C48.9878 10.7171 48.9779 10.6854 48.9661 10.6557C48.9522 10.6239 48.9285 10.5982 48.9028 10.5784C48.8751 10.5605 48.8434 10.5486 48.8098 10.5446C48.7782 10.5446 48.7445 10.5447 48.7129 10.5546C48.3826 10.6795 48.0325 10.7449 47.6805 10.7469C46.9962 10.7469 46.6382 10.4554 46.6382 9.66443V6.99801H48.79C48.8434 6.99801 48.8949 6.97422 48.9305 6.93457C48.968 6.89492 48.9898 6.84139 48.9898 6.78588V4.24436L51.8912 14.0616C51.909 14.119 51.9466 14.1666 51.9941 14.2023C52.0415 14.238 52.0989 14.2578 52.1562 14.24H55.3544C55.4137 14.2578 55.471 14.238 55.5185 14.2023C55.564 14.1666 55.5996 14.119 55.6194 14.0616L56.99 9.71399L57.6842 11.9899L58.3171 14.0675C58.3349 14.125 58.3705 14.1726 58.4199 14.2083C58.4674 14.2439 58.5248 14.2638 58.5841 14.3252H61.804C61.8633 14.2638 61.9206 14.2439 61.9661 14.2083C62.0136 14.1726 62.0492 14.125 62.069 14.0675L65.0456 4.22057V14.1111C65.0475 14.1666 65.0693 14.2202 65.1049 14.2618C65.1425 14.3014 65.1939 14.3252 65.2493 14.3252H69.1396C69.2523 14.3252 69.3433 14.2301 69.3433 14.1131V3.79434C69.3433 3.73883 69.3196 3.6853 69.284 3.64367C69.2464 3.60402 69.195 3.58221 69.1416 3.58221H61.3194C61.3194 3.58221 61.2067 3.58816 61.1612 3.62384C61.1157 3.65953 61.0801 3.71107 61.0623 3.76856L60.0595 7.68196L60.0081 7.88417L58.7878 3.72891C58.77 3.67142 58.7344 3.62384 58.685 3.58816C58.6375 3.55247 58.5228 3.58023 58.5228 3.58023H55.475C55.475 3.58023 55.2495 3.61195 55.21 3.72693L54.0688 7.64628L54.0134 7.84849L53.962 7.64628L53.4774 5.7094L52.9929 3.77055C52.9751 3.71306 52.9414 3.66349 52.894 3.62583C52.8485 3.58816 52.7931 3.56833 52.7357 3.57825H46.5531V0.210029C46.5868 0.176327 46.5789 0.142625 46.565 0.112888C46.5492 0.0851333 46.5294 0.0613436 46.5037 0.0395364C46.476 0.0197117 46.4463 0.00583444 46.4147 -0.000112974C46.3831 -0.00407792 46.3514 -0.000112973 46.3217 0.00583444L42.5026 1.22109C42.4314 1.24488 42.3701 1.28849 42.3266 1.35193C42.2831 1.41339 42.2574 1.56406 42.2574 1.56406V3.58023H41.2447C41.1913 3.58023 41.1379 3.60204 41.1004 3.64169C41.0628 3.68134 41.041 3.73486 41.041 3.79037V6.77994C41.041 6.83545 41.0628 6.88897 41.1004 6.92862C41.1379 6.96827 41.1894 6.99206 41.2447 6.99206V6.99603Z" fill="#121C2D"></path>
<path d="M70.1523 0.20813V14.1053C70.1523 14.1608 70.1741 14.2143 70.2117 14.2559C70.2493 14.2956 70.3007 14.3194 70.3561 14.3194H74.2464C74.2998 14.3194 74.3512 14.2956 74.3908 14.2559C74.4283 14.2163 74.4501 14.1627 74.4501 14.1053V0.214078C74.4501 0.158568 74.4264 0.105042 74.3908 0.0634097C74.3532 0.0237603 74.3018 0.00195312 74.2464 0.00195312H74.2068H70.3561C70.2453 0.00195312 70.1563 0.0951293 70.1523 0.210113V0.20813Z" fill="#121C2D"></path>
<path d="M75.3418 0.214078V2.61881C75.3418 2.67432 75.3636 2.72785 75.4011 2.76948C75.4387 2.80913 75.4901 2.83292 75.5455 2.83292H79.4358C79.5486 2.83292 79.6376 2.73578 79.6396 2.61881V0.214078C79.6396 0.158568 79.6158 0.105042 79.5802 0.0634097C79.5426 0.0237603 79.4912 0.00195312 79.4358 0.00195312H75.5455C75.4921 0.00195312 75.4407 0.0237603 75.4011 0.0634097C75.3636 0.103059 75.3418 0.156586 75.3418 0.214078Z" fill="#121C2D"></path>
<path d="M79.4358 3.58228H79.3963H75.5455C75.4921 3.58228 75.4407 3.60408 75.4011 3.64373C75.3636 3.68338 75.3418 3.73691 75.3418 3.7944V14.1072C75.3418 14.1627 75.3636 14.2162 75.4011 14.2579C75.4387 14.2975 75.4901 14.3193 75.5455 14.3193H79.4358C79.5486 14.3193 79.6376 14.2242 79.6396 14.1072V3.7944C79.6396 3.73889 79.6178 3.68536 79.5802 3.64373C79.5426 3.60408 79.4912 3.58228 79.4358 3.58228Z" fill="#121C2D"></path>
<path d="M85.9427 3.29297C82.4994 3.29297 80.0449 5.87018 80.0449 8.86966V8.90931C80.0449 11.9088 82.4737 14.4463 85.8992 14.4483H85.9091C89.3346 14.4463 91.799 11.8731 91.8029 8.87561V8.82803C91.801 5.82855 89.3702 3.29297 85.9427 3.29297ZM87.6674 8.90931C87.6674 9.92235 86.9573 10.757 85.9823 10.757C85.0072 10.757 84.2616 9.92235 84.2616 8.86966V8.83199C84.2616 7.81895 84.9716 6.98433 85.9447 6.98433C86.9178 6.98433 87.6674 7.81895 87.6674 8.87164V8.91129V8.90931Z" fill="#121C2D"></path>
<path d="M47.0155 33.1171C44.3099 33.1171 42.7257 32.2349 41.4282 31.1109V28.9936C43.056 30.6034 44.925 31.44 46.9265 31.44C48.6195 31.44 49.5886 30.6252 49.5886 29.3445C49.5886 27.7347 48.0479 27.5583 46.2679 27.36C43.9796 27.0964 41.2305 26.7435 41.2305 23.744C41.2305 21.2302 43.2755 19.7751 45.9811 19.7751C48.6868 19.7751 50.271 20.6791 51.3489 21.5177V23.6132C49.9625 22.158 48.1369 21.4305 46.0484 21.4087C44.1576 21.4087 43.232 22.2909 43.232 23.5696C43.232 25.0465 44.838 25.2666 46.62 25.4648C48.93 25.7285 51.6357 26.127 51.6357 29.1919C51.6357 31.551 49.8319 33.1171 47.0175 33.1171H47.0155ZM60.2589 33.1171C55.9473 33.1171 53.3306 30.7362 53.3306 26.6127V26.3034C53.3306 22.2691 55.8385 19.7771 59.3135 19.7771C62.5907 19.7771 64.9443 21.7834 64.9443 25.9723V26.9636H55.3974C55.5735 30.1375 57.7075 31.3944 60.6109 31.3944C62.5472 31.3944 63.8011 30.6886 64.6793 29.9611V31.8127C63.9752 32.3638 62.6777 33.1132 60.2589 33.1132V33.1171ZM59.2917 21.4107C57.2012 21.4107 55.706 22.7112 55.4212 25.4232H62.8775C62.745 22.733 61.4258 21.4107 59.2917 21.4107ZM67.0922 32.8971V19.9991H69.1155V24.3427C69.5545 21.0796 71.206 19.7791 73.6466 19.7791C76.9456 19.7791 78.5298 21.829 78.5298 25.3359V32.8991H76.4847V25.7562C76.4847 23.1334 75.4504 21.4781 72.899 21.4781C70.7649 21.4781 69.1372 23.1096 69.1372 26.24V32.8991H67.0922V32.8971ZM86.1404 33.1171C82.8631 33.1171 80.6203 30.6926 80.6203 26.5908V26.2816C80.6203 22.2254 82.9521 19.7771 86.2076 19.7771C88.8262 19.7771 90.4302 21.2322 90.9583 24.1861V15.5881H93.0033V32.8951H90.9583V28.7061C90.452 31.66 88.846 33.1152 86.1404 33.1152V33.1171ZM86.8445 31.4201C89.3741 31.4201 91.0235 29.7232 91.0235 26.5036V26.349C91.0235 23.2187 89.3523 21.4325 86.8445 21.4325C84.3366 21.4325 82.7089 23.2187 82.7089 26.349V26.5036C82.7089 29.7013 84.4256 31.4201 86.8445 31.4201ZM100.114 37.9028C95.9127 37.9028 94.637 36.8442 94.637 35.2562C94.637 33.8229 95.7366 32.7861 98.3098 32.6096C98.3315 32.6096 98.3533 32.5878 98.3533 32.566C98.3533 32.5442 98.3315 32.5224 98.3098 32.5224C96.0452 32.5224 95.2086 31.9713 95.2086 30.869C95.2086 29.854 96.2647 28.9064 98.8378 28.8846C98.8596 28.8846 98.8813 28.8628 98.8813 28.841C98.8813 28.8191 98.8596 28.7973 98.8378 28.7973C96.595 28.4663 95.2738 26.8783 95.2738 24.4756C95.2738 21.6525 97.4296 19.7791 100.596 19.7791C102.07 19.7791 102.774 19.9991 103.719 19.9991H107.129V21.6743H104.512C105.349 22.2691 105.875 23.4169 105.875 24.6738C105.875 27.144 103.96 29.1264 100.705 29.1264H99.9118C98.1515 29.1264 97.2279 29.5011 97.2279 30.1633C97.2279 30.869 97.843 30.9781 100.177 30.9781H102.53C105.543 30.9781 107.062 31.7492 107.062 33.9537C107.062 36.1583 105.171 37.9008 100.418 37.9008H100.11L100.114 37.9028ZM100.598 27.6515C102.732 27.6515 103.897 26.3074 103.897 24.543C103.897 22.6913 102.73 21.2362 100.598 21.2362C98.466 21.2362 97.2773 22.5149 97.2773 24.543C97.2773 26.3074 98.4423 27.6515 100.598 27.6515ZM100.555 36.3169C103.854 36.3169 105.064 35.5239 105.064 34.267C105.064 33.0755 104.097 32.7682 102.117 32.7682H100.028C97.5206 32.7682 96.6623 33.6722 96.6623 34.7091C96.6623 35.6567 97.6076 36.3188 100.313 36.3188H100.555V36.3169ZM108.84 32.8991V20.0011H110.863V24.5648C111.237 21.0816 112.799 19.7811 115.153 19.7811C115.857 19.7811 116.428 19.9139 116.78 20.0903V22.053C116.296 21.7219 115.57 21.5673 114.888 21.5673C112.667 21.5673 110.885 23.177 110.885 26.5492V32.8991H108.84ZM119.672 18.5242C118.924 18.5242 118.353 18.1277 118.353 17.2455C118.353 16.3197 118.924 15.945 119.672 15.945C120.465 15.945 120.991 16.3197 120.991 17.2455C120.991 18.1713 120.463 18.5242 119.672 18.5242ZM118.659 32.8991V20.0011H120.704V32.8991H118.659ZM128.408 33.1191C125.131 33.1191 122.888 30.6946 122.888 26.5928V26.2836C122.888 22.2274 125.22 19.7791 128.475 19.7791C131.092 19.7791 132.698 21.2342 133.226 24.1881V15.5901H135.271V32.8971H133.226V28.7081C132.72 31.662 131.114 33.1171 128.408 33.1171V33.1191ZM129.112 31.4221C131.642 31.4221 133.291 29.7251 133.291 26.5056V26.351C133.291 23.2206 131.62 21.4344 129.112 21.4344C126.604 21.4344 124.976 23.2206 124.976 26.351V26.5056C124.976 29.7033 126.691 31.4221 129.112 31.4221Z" fill="#121C2D"></path>
</g>
<defs>
<clipPath id="clip0_591_3272">
<rect width="135.317" height="38" fill="white"></rect>
</clipPath>
</defs>
</svg>